<?xml version="1.0" encoding="UTF-8"?>
<svg version="1.1" viewBox="0 0 285 85" xml:space="preserve" xmlns="http://www.w3.org/2000/svg"><defs><clipPath id="clipPath44"><path d="m0 144h252v-144h-252z"/></clipPath></defs><g transform="matrix(1.3333 0 0 -1.3333 0 192)" opacity=".5"><g transform="translate(-18.566 39.081)"><g clip-path="url(#clipPath44)"><g transform="translate(98.004 83.81)"><path d="m0 0c-3.374 0-5.623-2.081-5.623-5.286 0-3.092 2.08-5.286 5.735-5.286 2.7 0 4.836 0.731 6.804 2.137-0.674 6.523-3.486 8.435-6.916 8.435" fill="#231f20"/></g><g transform="translate(98.004 55.526)"><path d="m0 0c-7.085 0-11.696 4.105-11.977 10.234h6.129c0.225-2.699 1.856-5.173 6.017-5.173 4.386 0 6.691 2.811 6.916 10.346-1.743-1.574-4.33-2.699-7.928-2.699-7.479 0-11.078 4.949-11.078 10.291 0 6.129 4.836 10.29 11.752 10.29 7.31 0 13.496-4.386 13.496-16.813 0-11.247-5.511-16.476-13.327-16.476m20.062 47.893h-39.595c-2.53 0-4.581-2.051-4.581-4.581v-52.16c0-2.529 2.051-4.58 4.581-4.58h39.595c2.529 0 4.58 2.051 4.58 4.58v52.16c0 2.53-2.051 4.581-4.58 4.581" fill="#231f20"/></g><g transform="translate(151.71 70.146)"><path d="m0 0c-3.599 0-6.804-1.35-6.804-4.836 0-3.318 3.205-4.78 6.804-4.78 3.543 0 6.692 1.462 6.692 4.78 0 3.486-3.149 4.836-6.692 4.836" fill="#231f20"/></g><g transform="translate(57.685 56.088)"><path d="m0 0h-21.93v5.173h8.547v20.019c-1.406-1.631-3.768-2.587-7.254-2.587h-1.293v5.567h2.53c3.543 0 6.186 1.293 7.479 3.992h4.667v-26.991h7.254zm7.334 47.33h-39.649c-2.515 0-4.554-2.038-4.554-4.553v-52.214c0-2.515 2.039-4.554 4.554-4.554h39.649c2.515 0 4.554 2.039 4.554 4.554v52.214c0 2.515-2.039 4.553-4.554 4.553" fill="#231f20"/></g><g transform="translate(151.65 74.532)"><path d="m0 0c3.037 0 6.017 1.293 6.017 4.555 0 3.486-2.98 4.779-6.017 4.779-3.036 0-6.017-1.293-6.017-4.779 0-3.262 2.981-4.555 6.017-4.555" fill="#231f20"/></g><g transform="translate(206.82 68.684)"><path d="m0 0v11.246l-9.335-11.246z" fill="#231f20"/></g><g transform="translate(218.06 63.68)"><path d="m0 0h-5.342v-7.591h-5.904v7.591h-16.589v3.88l17.151 20.693h5.342v-19.568h5.342zm7.445 39.739h-39.651c-2.515 0-4.553-2.038-4.553-4.553v-52.215c0-2.515 2.038-4.553 4.553-4.553h39.651c2.514 0 4.552 2.038 4.552 4.553v52.215c0 2.515-2.038 4.553-4.552 4.553" fill="#231f20"/></g><g transform="translate(151.65 55.526)"><path d="m0 0c-6.692 0-13.046 3.036-13.046 9.278 0 3.993 2.306 6.354 5.511 7.591-2.755 1.35-4.78 3.599-4.78 6.973 0 6.804 6.186 9.447 12.315 9.447 6.185 0 12.315-2.643 12.315-9.447 0-3.43-2.025-5.623-4.78-6.973 3.205-1.237 5.511-3.598 5.511-7.591 0-6.242-6.354-9.278-13.046-9.278m20.121 47.893h-39.594c-2.53 0-4.581-2.052-4.581-4.582v-52.158c0-2.53 2.051-4.581 4.581-4.581h39.594c2.53 0 4.581 2.051 4.581 4.581v52.158c0 2.53-2.051 4.582-4.581 4.582" fill="#231f20"/></g></g></g></g></svg>
