<svg xmlns="http://www.w3.org/2000/svg" viewBox="0 0 533.6 125.71"><defs><style>.cls-1{fill:#124228;}.cls-2{fill:#3bdb84;}</style></defs><g id="Layer_2" data-name="Layer 2"><g id="Layer_1-2" data-name="Layer 1"><polygon class="cls-1" points="80.86 120.5 48.87 120.5 93.79 34.59 125.77 34.59 80.86 120.5"/><polygon class="cls-1" points="129.66 120.5 97.67 120.5 142.59 34.59 174.58 34.59 129.66 120.5"/><polygon class="cls-2" points="254.07 5.84 212.9 5.84 212.9 34.18 225.73 34.18 225.73 120.5 254.07 120.5 254.07 5.84 254.07 5.84"/><path class="cls-2" d="M330,4.82a44.17,44.17,0,1,0-25.18,83.23l-17,32.45h32l29.41-56.13h0a1,1,0,0,0,.08-.14A44.21,44.21,0,0,0,330,4.82ZM302.72,58.27a15.83,15.83,0,0,1,14.37-28.2h0A15.84,15.84,0,0,1,324,51.34l0,0A15.84,15.84,0,0,1,302.72,58.27Z"/><circle class="cls-1" cx="20" cy="54.91" r="20"/><path class="cls-1" d="M35.13,120.5A20,20,0,1,0,0,107.45a19.87,19.87,0,0,0,4.87,13Z"/><path class="cls-2" d="M521.19,65.26V52.37H492.84V65.26H475.63L506.7,5.84h-32L445.61,61.5a48,48,0,0,1,5.09,32.11h42.14V120.5h28.35V93.61H533.6V65.26Z"/><path class="cls-2" d="M431.17,56.26A34.94,34.94,0,0,0,437.67,36c0-19.83-16.69-36-37.21-36s-37.2,16.14-37.2,36a34.94,34.94,0,0,0,6.5,20.29,40.12,40.12,0,0,0-11.88,28.39c0,22.64,19.11,41.06,42.58,41.06S443,107.29,443,84.65A40.11,40.11,0,0,0,431.17,56.26ZM400.46,28.35c4.89,0,8.87,3.42,8.87,7.62s-4,7.63-8.87,7.63S391.6,40.18,391.6,36,395.58,28.35,400.46,28.35Zm0,69c-7.84,0-14.23-5.7-14.23-12.71s6.39-12.71,14.23-12.71,14.24,5.7,14.24,12.71S408.31,97.36,400.46,97.36Z"/></g></g></svg>
